<svg width="40" height="40" viewBox="0 0 40 40" fill="none" xmlns="http://www.w3.org/2000/svg">
<path d="M0 16C0 7.16344 7.16344 0 16 0H24C32.8366 0 40 7.16344 40 16V24C40 32.8366 32.8366 40 24 40H16C7.16344 40 0 32.8366 0 24V16Z" fill="#422AD5"/>
<path d="M29.9998 20C29.9998 20.0948 29.9729 20.1875 29.9222 20.2675C29.8715 20.3476 29.7992 20.4115 29.7135 20.452L11.7135 28.952C11.6236 28.9956 11.5227 29.0112 11.4238 28.9966C11.325 28.9821 11.2328 28.9381 11.1593 28.8705C11.0857 28.8029 11.0342 28.7147 11.0114 28.6174C10.9886 28.5202 10.9956 28.4183 11.0315 28.325L13.8735 20.698C14.0412 20.2478 14.0412 19.7523 13.8735 19.302L11.0305 11.675C10.9945 11.5817 10.9874 11.4796 11.0102 11.3822C11.0329 11.2847 11.0846 11.1964 11.1583 11.1287C11.232 11.061 11.3244 11.0171 11.4235 11.0027C11.5225 10.9883 11.6236 11.0041 11.7135 11.048L29.7135 19.548C29.7992 19.5885 29.8715 19.6525 29.9222 19.7325C29.9729 19.8126 29.9998 19.9053 29.9998 20ZM29.9998 20H13.9995" stroke="#DBD6FC" stroke-width="2" stroke-linecap="round" stroke-linejoin="round"/>
</svg>
