<svg width="25" height="25" viewBox="0 0 25 25" fill="none" xmlns="http://www.w3.org/2000/svg">
<path d="M3.44806 12.5C3.44806 7.25311 7.70023 3 12.9481 3C18.1939 3 22.4481 7.25318 22.4481 12.5C22.4481 17.7468 18.1939 22 12.9481 22C7.70023 22 3.44806 17.7469 3.44806 12.5Z" fill="#FC3F1D" stroke="#E4E4E7"/>
<path d="M14.2281 8.16606H13.3041C11.6101 8.16606 10.7191 9.02406 10.7191 10.2891C10.7191 11.7191 11.3351 12.3891 12.6001 13.2481L13.6451 13.9521L10.6421 18.4391H8.39807L11.0931 14.4251C9.54307 13.3141 8.67307 12.2351 8.67307 10.4101C8.67307 8.12206 10.2681 6.56006 13.2931 6.56006H16.2961V18.4281H14.2281V8.16606Z" fill="white"/>
</svg>
